# 3ds Max Wavefront OBJ Exporter v0.97b - (c)2007 guruware
# File Created: 28.04.2019 14:21:42

mtllib Obj_Player_Cape.mtl

#
# object Cape
#

v  -15.0584 141.1387 -25.5476
v  -15.0584 138.8480 -9.3112
v  -7.5292 139.4674 -8.8062
v  -7.5292 141.1387 -25.5476
v  -0.0000 140.2498 -9.4207
v  -0.0000 141.1387 -25.5476
v  7.5292 139.4674 -8.8062
v  7.5292 141.1387 -25.5476
v  15.0584 137.5944 -9.2530
v  15.0584 141.1387 -25.5476
v  -15.0584 140.2497 -44.6860
v  -7.5292 140.2497 -44.6860
v  -0.0000 140.2497 -44.6860
v  7.5292 140.2497 -44.6860
v  15.0584 140.2497 -44.6860
v  -15.0584 139.3607 -63.8244
v  -7.5292 139.3607 -63.8244
v  -0.0000 139.3607 -63.8244
v  7.5292 139.3607 -63.8244
v  15.0584 139.3607 -63.8244
v  -15.0584 138.4717 -99.4267
v  -7.5292 138.4717 -99.4267
v  -0.0000 138.4717 -79.1656
v  7.5292 138.4717 -76.4528
v  15.0584 138.4717 -68.3699
# 25 vertices

vn 0.0000 0.9989 0.0469
vn -0.0445 0.9892 0.1396
vn -0.0450 0.9940 0.0992
vn 0.0000 0.9996 0.0265
vn 0.0000 0.9985 0.0550
vn 0.0000 1.0000 0.0043
vn 0.0854 0.9914 0.0990
vn 0.1244 0.9696 0.2109
vn 0.0000 0.9965 0.0838
vn 0.0000 0.9989 -0.0464
vn 0.0000 0.9994 -0.0357
vn 0.0000 0.9986 -0.0521
vn 0.0000 0.9983 -0.0583
vn 0.0000 0.9928 -0.1195
vn 0.0000 0.9997 -0.0250
vn 0.0096 0.9996 -0.0250
vn 0.0525 0.9969 -0.0578
vn 0.0218 0.9973 -0.0702
vn 0.1005 0.9764 -0.1910
# 19 vertex normals

vt 0.0000 0.2500 0.0000
vt 0.0000 0.0000 0.0000
vt 0.2500 0.0000 0.0000
vt 0.2500 0.2500 0.0000
vt 0.5000 0.0000 0.0000
vt 0.5000 0.2500 0.0000
vt 0.7500 0.0000 0.0000
vt 0.7500 0.2500 0.0000
vt 1.0000 0.0000 0.0000
vt 1.0000 0.2500 0.0000
vt 0.0000 0.5000 0.0000
vt 0.2500 0.5000 0.0000
vt 0.5000 0.5000 0.0000
vt 0.7500 0.5000 0.0000
vt 1.0000 0.5000 0.0000
vt 0.0000 0.7500 0.0000
vt 0.2500 0.7500 0.0000
vt 0.5000 0.7500 0.0000
vt 0.7500 0.7500 0.0000
vt 1.0000 0.7500 0.0000
vt 0.0000 1.0000 0.0000
vt 0.2500 1.0000 0.0000
vt 0.5000 1.0000 0.0000
vt 0.7500 1.0000 0.0000
vt 1.0000 1.0000 0.0000
# 25 texture coords

o Cape
g Cape
usemtl 02___Default
s 1
f 1/1/1 2/2/2 3/3/3 4/4/4 
f 4/4/4 3/3/3 5/5/5 6/6/6 
f 6/6/6 5/5/5 7/7/7 8/8/4 
f 8/8/4 7/7/7 9/9/8 10/10/9 
f 11/11/10 1/1/1 4/4/4 12/12/10 
f 12/12/10 4/4/4 6/6/6 13/13/10 
f 13/13/10 6/6/6 8/8/4 14/14/10 
f 14/14/10 8/8/4 10/10/9 15/15/10 
f 16/16/11 11/11/10 12/12/10 17/17/11 
f 17/17/11 12/12/10 13/13/10 18/18/12 
f 18/18/12 13/13/10 14/14/10 19/19/13 
f 19/19/13 14/14/10 15/15/10 20/20/14 
f 21/21/15 16/16/11 17/17/11 22/22/16 
f 22/22/16 17/17/11 18/18/12 23/23/17 
f 23/23/17 18/18/12 19/19/13 24/24/18 
f 24/24/18 19/19/13 20/20/14 25/25/19 
# 16 polygons

